<svg width="116" height="24" viewBox="0 0 116 24" fill="none" xmlns="http://www.w3.org/2000/svg">
<path d="M0.186107 4.00733C0.0656848 3.88787 0 3.74669 0 3.58379V0.695052C0 0.510433 0.0656848 0.358395 0.186107 0.228076C0.306529 0.108617 0.459794 0.043457 0.613059 0.043457H19.8697C20.0339 0.043457 20.1762 0.108617 20.2966 0.228076C20.417 0.358395 20.4827 0.510433 20.4827 0.684192V3.58379C20.4827 3.74669 20.428 3.88787 20.3076 4.00733C20.1871 4.13764 20.0448 4.19194 19.8587 4.19194H0.613059C0.459794 4.2028 0.317477 4.13764 0.186107 4.00733ZM8.12303 23.7289C8.0026 23.6095 7.93692 23.4574 7.93692 23.3054V10.6319C7.93692 10.4473 8.0026 10.3061 8.12303 10.1866C8.24345 10.078 8.39671 10.0129 8.54998 10.0129H16.684C16.8701 10.0129 17.0233 10.078 17.1437 10.1975C17.2642 10.3278 17.3299 10.469 17.3299 10.621V13.8247C17.3299 14.0093 17.2642 14.1613 17.1437 14.2808C17.0233 14.4111 16.8591 14.4654 16.684 14.4654H13.2136C13.0494 14.4654 12.9071 14.5197 12.7866 14.6392C12.6662 14.7586 12.6005 14.8998 12.6005 15.0844V23.2945C12.6005 23.4574 12.5349 23.5986 12.4144 23.7181C12.294 23.8375 12.1298 23.9027 11.9546 23.9027H8.56092C8.38577 23.9135 8.24345 23.8484 8.12303 23.7289Z" fill="white"/>
<path d="M29.5254 22.7624C28.2445 22.0239 27.2264 21.0139 26.4711 19.7325C25.7157 18.451 25.3325 17.0609 25.3325 15.5623V9.03545C25.3325 8.86169 25.3982 8.70965 25.5186 8.60105C25.6391 8.49245 25.7814 8.43815 25.9456 8.43815H29.1313C29.3065 8.43815 29.4597 8.49245 29.5692 8.60105C29.6787 8.70965 29.7334 8.86169 29.7334 9.03545V15.5623C29.7334 16.6808 30.1166 17.6365 30.8829 18.4076C31.6492 19.1786 32.5907 19.5696 33.6964 19.5696C34.5503 19.5696 35.3495 19.3958 36.072 19.0266C36.7945 18.6682 37.3747 18.1795 37.8017 17.5605C38.2286 16.9415 38.4476 16.279 38.4476 15.5623V0.619015C38.4476 0.466976 38.5133 0.325797 38.6337 0.195478C38.7541 0.0760194 38.9074 0.0108599 39.0935 0.0108599H42.2135C42.3887 0.0108599 42.5419 0.0760194 42.6733 0.195478C42.7937 0.314938 42.8594 0.456116 42.8594 0.619015V15.5623C42.8594 17.0935 42.4653 18.4836 41.688 19.7542C40.9108 21.0248 39.827 22.0239 38.4366 22.7624C37.0463 23.5009 35.4699 23.8701 33.7073 23.8701C32.1966 23.8701 30.8063 23.5009 29.5254 22.7624ZM25.5186 3.96387C25.3982 3.84441 25.3325 3.70323 25.3325 3.54033V0.608155C25.3325 0.423537 25.3982 0.282358 25.5186 0.173759C25.6391 0.0651595 25.7814 0 25.9456 0H29.1313C29.3065 0 29.4597 0.0542996 29.5692 0.173759C29.6787 0.282358 29.7334 0.434397 29.7334 0.608155V3.54033C29.7334 3.69237 29.6787 3.83355 29.5692 3.96387C29.4597 4.08333 29.3065 4.14849 29.1313 4.14849H25.9456C25.7814 4.14849 25.6391 4.09419 25.5186 3.96387Z" fill="white"/>
<path d="M63.1232 23.8484C63.1232 23.8484 63.0356 23.7398 62.8495 23.5009C61.9518 22.1108 60.4848 19.8519 58.4486 16.7243C56.4124 13.5966 54.8797 11.2183 53.8506 9.57845C53.7083 9.41555 53.6207 9.33953 53.577 9.33953C53.5332 9.33953 53.5003 9.38297 53.4894 9.48071C53.4784 9.56759 53.4675 9.64361 53.4675 9.68705L53.5332 13.7269C53.5332 13.8898 53.4784 14.031 53.358 14.1505C53.2376 14.2808 53.0953 14.3351 52.9092 14.3351H49.5702C49.3841 14.3351 49.2308 14.2808 49.0994 14.1613C48.9681 14.0527 48.9133 13.9007 48.9133 13.7161V0.662459C48.9133 0.477841 48.979 0.325802 49.0994 0.195483C49.2199 0.0651638 49.3841 0.0108643 49.5702 0.0108643H52.953C53.1172 0.0108643 53.2485 0.0760238 53.369 0.217203L61.7109 13.9984C61.9189 14.3894 62.0941 14.574 62.2255 14.574C62.3349 14.574 62.4006 14.3785 62.4006 13.9984L62.3568 0.662459C62.3568 0.477841 62.4225 0.325802 62.5429 0.195483C62.6743 0.0651638 62.8166 0.0108643 62.9699 0.0108643H66.6263C66.8125 0.0108643 66.9657 0.0760238 67.0971 0.195483C67.2285 0.325802 67.2832 0.477841 67.2832 0.662459V23.2294C67.2832 23.414 67.2175 23.5552 67.0971 23.6746C66.9657 23.7832 66.8125 23.8484 66.6263 23.8484H63.4516H63.4187H63.3859C63.2107 23.8484 63.1232 23.8484 63.1232 23.8484Z" fill="white"/>
<path d="M73.4027 23.7289C73.2713 23.6095 73.2166 23.4574 73.2166 23.3054V0.695056C73.2166 0.510438 73.2822 0.358399 73.4027 0.23894C73.5231 0.119481 73.6764 0.0543213 73.8296 0.0543213H77.5408C77.705 0.0543213 77.8473 0.119481 77.9678 0.23894C78.0882 0.369259 78.1539 0.521297 78.1539 0.695056V8.52505L85.1274 0.423558C85.3354 0.17378 85.5872 0.0543213 85.8828 0.0543213H90.7873C91.039 0.0543213 91.1923 0.0977609 91.2361 0.1955C91.2799 0.282379 91.2689 0.380119 91.2033 0.466998L78.7122 14.965C78.3509 15.3994 78.1648 15.9424 78.1648 16.6048V23.3162C78.1648 23.4791 78.1101 23.6203 77.9897 23.7398C77.8692 23.8592 77.7269 23.9244 77.5408 23.9244H73.8296C73.6764 23.9135 73.534 23.8484 73.4027 23.7289ZM85.9704 23.7289C85.7514 23.6312 85.5763 23.4683 85.4339 23.2728L81.7994 18.1361C81.6352 17.8863 81.5585 17.68 81.5585 17.5279C81.5585 17.3216 81.6461 17.1044 81.8322 16.8763C82.0183 16.67 82.2263 16.4311 82.4672 16.1487C82.708 15.8664 82.9379 15.5949 83.1678 15.3451L83.8903 14.498C84.0327 14.3134 84.1859 14.2265 84.372 14.2265C84.58 14.2265 84.7443 14.3242 84.8866 14.5306L91.0609 23.2185C91.1047 23.3054 91.1266 23.3923 91.1266 23.4574C91.1266 23.7506 90.9186 23.9135 90.5136 23.9353H87.0104C86.5396 23.8918 86.1893 23.8267 85.9704 23.7289Z" fill="white"/>
<path d="M95.4619 0.727632C95.4181 0.640752 95.3962 0.543013 95.3962 0.456134C95.3962 0.184636 95.5714 0.043457 95.9108 0.043457H99.1731C99.5672 0.043457 99.8081 0.0760368 99.9066 0.141196C100.005 0.206356 100.104 0.325815 100.202 0.477854L100.717 1.43353C100.881 1.74846 101.593 3.10595 102.884 5.48428C103.027 5.79921 103.092 6.05985 103.092 6.26619C103.092 6.51597 103.027 6.77661 102.884 7.0481L101.439 9.66534C101.319 9.91512 101.155 10.0346 100.925 10.0346C100.717 10.0346 100.563 9.92598 100.443 9.69792L95.4619 0.727632Z" fill="white"/>
<path d="M103.443 23.7289C103.322 23.6095 103.257 23.4574 103.257 23.3054V15.4754C103.257 14.7261 103.476 13.803 103.924 12.6953C104.373 11.5984 105.052 10.2518 105.972 8.65537C106.289 8.09065 107.296 6.21189 108.993 3.04079L110.263 0.662472C110.351 0.477854 110.471 0.336675 110.602 0.217216C110.734 0.108617 110.953 0.043457 111.259 0.043457H114.554C114.97 0.043457 115.168 0.162916 115.168 0.380114C115.168 0.466994 115.135 0.586453 115.069 0.716772L107.898 13.7269C107.668 14.1396 107.548 14.6283 107.526 15.193V17.5388V23.2945C107.526 23.4574 107.471 23.5986 107.351 23.7181C107.241 23.8375 107.088 23.9027 106.902 23.9027H103.881C103.716 23.9135 103.574 23.8484 103.443 23.7289Z" fill="white"/>
</svg>
